<?xml version="1.0" standalone="no"?>
<!DOCTYPE svg PUBLIC "-//W3C//DTD SVG 20010904//EN"
 "http://www.w3.org/TR/2001/REC-SVG-20010904/DTD/svg10.dtd">
<svg version="1.0" xmlns="http://www.w3.org/2000/svg"
 width="537.000000pt" height="617.000000pt" viewBox="0 0 537.000000 617.000000"
 preserveAspectRatio="xMidYMid meet">

<g transform="translate(0.000000,617.000000) scale(0.100000,-0.100000)"
fill="#000000" stroke="none">
<path d="M2530 5503 c-403 -25 -853 -186 -1157 -414 l-53 -40 0 -174 0 -174
-30 -16 c-95 -49 -198 -207 -241 -370 -31 -114 -31 -327 0 -440 43 -159 123
-288 221 -354 l50 -34 0 -133 0 -132 -52 -4 c-38 -3 -63 1 -88 14 -76 40 -171
9 -211 -68 -17 -31 -31 -44 -53 -48 -45 -9 -73 -32 -95 -75 -24 -46 -62 -58
-115 -36 -93 39 -202 0 -245 -87 -11 -24 -21 -56 -21 -69 0 -16 -11 -33 -30
-47 -39 -29 -53 -82 -36 -134 8 -21 12 -57 9 -78 -7 -53 11 -93 63 -138 36
-31 58 -70 147 -257 238 -500 307 -648 307 -655 0 -4 -10 -5 -23 -3 -45 9
-110 -17 -152 -60 -22 -23 -44 -43 -50 -43 -5 -1 -21 -2 -34 -3 -12 0 -38 -16
-57 -35 -26 -26 -34 -42 -34 -70 0 -47 23 -92 57 -109 14 -8 38 -31 52 -53 65
-95 191 -104 270 -20 14 14 29 26 35 26 5 0 -2 -13 -17 -28 -45 -46 -52 -84
-28 -135 12 -24 21 -50 21 -58 0 -95 94 -189 190 -189 40 0 108 29 129 53 9
12 29 17 65 17 83 0 156 62 156 133 0 31 -2 30 55 16 36 -9 53 -8 97 6 65 21
149 83 173 128 12 23 38 44 83 67 36 19 97 64 136 101 38 37 73 66 78 63 4 -3
8 -21 8 -40 0 -41 15 -74 33 -74 7 0 21 -6 31 -13 17 -12 17 -14 -1 -45 -10
-17 -26 -32 -36 -32 -27 0 -74 -27 -91 -52 -22 -31 -20 -90 4 -121 11 -14 20
-38 20 -54 1 -73 66 -153 142 -174 53 -14 93 -6 152 31 31 20 60 30 86 30 21
0 50 4 64 10 l25 9 -19 -32 c-38 -62 -18 -141 44 -171 19 -9 37 -16 41 -16 4
0 23 -13 41 -30 45 -39 102 -54 154 -40 48 13 93 50 110 90 11 26 18 30 49 30
78 0 138 68 128 144 -7 50 -62 106 -103 106 -16 0 -42 13 -65 34 -50 46 -109
62 -169 47 -59 -16 -105 -52 -126 -101 -12 -26 -27 -43 -46 -49 -31 -11 -31
-9 6 41 39 54 16 158 -41 189 -13 7 -29 25 -37 40 l-13 27 121 -5 c96 -4 147
-1 245 16 111 19 323 81 344 100 4 4 10 31 14 59 3 29 9 52 12 52 4 0 38 -31
76 -68 40 -39 98 -82 135 -101 48 -25 73 -45 94 -78 56 -86 182 -146 262 -124
91 25 197 124 266 251 32 58 34 60 75 60 l41 0 -5 -40 c-4 -29 0 -48 16 -75
11 -20 21 -43 21 -52 0 -9 9 -36 20 -59 36 -74 117 -95 185 -48 32 21 42 24
62 15 58 -26 140 -2 173 51 30 47 24 128 -13 166 -16 16 -27 39 -27 55 0 39
-48 80 -74 65 -3 -2 -15 7 -28 19 -27 25 -69 43 -104 43 -13 0 -24 3 -24 6 0
4 104 225 231 493 208 438 235 490 273 523 52 45 70 85 63 138 -3 21 1 57 9
78 17 52 3 104 -35 131 -21 15 -30 32 -35 63 -19 120 -148 191 -262 143 -53
-22 -91 -10 -114 35 -21 41 -74 80 -108 80 -12 0 -23 9 -27 20 -9 30 -53 79
-86 95 -38 20 -97 19 -139 -3 -24 -12 -51 -16 -87 -14 l-53 4 0 132 0 132 54
39 c101 73 174 191 217 350 31 115 31 327 0 440 -44 163 -125 294 -220 356
l-51 32 0 174 0 173 -62 45 c-385 284 -921 438 -1418 408z m415 -103 c3 -5 2
-10 -4 -10 -5 0 -13 5 -16 10 -3 6 -2 10 4 10 5 0 13 -4 16 -10z m-993 -115
c-62 -30 -168 -90 -236 -135 -114 -74 -126 -80 -175 -80 -29 0 -50 4 -47 9 8
12 148 94 239 140 73 37 292 120 317 120 8 0 -36 -24 -98 -54z m1468 8 c111
-42 267 -118 359 -177 l66 -41 -58 -3 c-46 -2 -64 1 -87 18 -17 12 -35 18 -41
14 -7 -4 -9 -3 -6 4 11 17 -86 81 -242 161 -153 77 -150 83 9 24z m-1602 -500
l-3 -208 -94 -3 c-135 -4 -198 -37 -240 -127 -20 -42 -21 -61 -21 -326 l0
-281 27 -49 c48 -90 109 -119 244 -119 l89 0 0 -243 c0 -285 5 -310 80 -387
49 -51 118 -80 187 -80 l33 0 -27 -41 -26 -40 -231 3 c-221 3 -233 4 -278 27
-57 29 -98 71 -130 131 l-23 45 -3 947 -2 947 32 4 c18 2 113 5 211 5 l177 2
-2 -207z m1649 194 c4 -5 8 -96 8 -202 l0 -193 -65 -6 c-86 -8 -1410 -8 -1489
0 l-61 7 0 203 0 203 799 -2 c440 -1 803 -6 808 -10z m457 2 c3 -3 6 -424 6
-935 1 -1051 5 -987 -79 -1072 -83 -85 -88 -87 -392 -90 l-267 -3 -37 26 c-24
16 -52 25 -75 25 -21 0 -43 7 -50 15 -11 13 3 15 117 15 169 0 219 14 283 80
75 77 80 102 80 386 l0 242 103 4 c95 3 108 6 152 33 36 22 57 45 77 84 l28
53 0 279 c0 263 -1 282 -21 324 -43 92 -108 125 -244 125 l-95 0 0 211 0 211
204 -3 c112 -2 207 -7 210 -10z m-2604 -895 c0 -542 2 -524 -42 -486 -16 13
-18 36 -18 203 0 182 -1 188 -24 216 -22 27 -23 37 -30 249 l-6 222 51 56 c28
31 55 56 60 56 5 0 9 -217 9 -516z m2759 461 l52 -55 -7 -222 c-6 -216 -7
-224 -30 -249 -24 -25 -24 -29 -24 -215 0 -169 -2 -193 -17 -206 -45 -38 -43
-56 -43 486 0 284 4 516 9 516 4 0 31 -25 60 -55z m-2884 -539 c24 -32 25 -38
25 -187 -1 -171 -4 -175 -56 -63 -83 177 -90 432 -16 624 l17 45 3 -193 c2
-189 3 -195 27 -226z m2404 397 c-3 -19 2 -33 11 -33 5 0 7 7 4 15 -4 8 -2 15
4 15 15 0 33 -26 24 -35 -4 -5 -2 -5 5 -1 7 4 19 -4 30 -21 16 -23 18 -55 21
-243 3 -210 3 -216 -20 -260 -46 -86 31 -80 -1030 -78 l-936 3 -26 24 c-51 48
-58 87 -54 324 l3 216 30 31 c17 18 39 36 50 40 25 11 1885 13 1884 3z m585
-27 c50 -119 64 -328 32 -471 -18 -81 -74 -216 -95 -229 -8 -5 -11 35 -11 148
0 150 1 155 25 184 25 30 25 32 25 216 0 102 2 186 5 186 3 0 11 -15 19 -34z
m-715 -710 c3 -2 4 -120 1 -263 l-5 -258 -32 -47 c-22 -31 -50 -54 -85 -72
-50 -25 -57 -26 -244 -26 -162 0 -194 2 -205 16 -21 26 -66 44 -109 44 -43 0
-99 -23 -113 -46 -6 -11 -68 -14 -327 -13 l-320 0 -51 27 c-30 16 -64 45 -83
70 l-31 44 -5 236 c-3 131 -4 249 -2 264 l3 27 801 0 c441 0 804 -1 807 -3z
m-2297 -526 c35 -34 50 -37 68 -15 7 8 19 15 28 15 22 0 62 -48 69 -82 l6 -31
-56 7 c-52 7 -58 5 -80 -18 -14 -14 -33 -26 -44 -26 -34 0 -73 -38 -73 -71 0
-19 5 -29 15 -29 8 0 15 9 15 19 0 31 29 53 64 49 25 -2 33 2 44 25 13 28 36
35 48 16 3 -6 17 -8 30 -5 17 5 26 2 30 -9 4 -8 14 -15 23 -15 9 0 37 -21 61
-46 25 -25 64 -57 88 -71 24 -14 40 -29 35 -34 -14 -14 -232 -105 -379 -157
-160 -58 -389 -122 -547 -155 -116 -24 -130 -22 -156 25 -13 22 -13 32 -2 66
13 37 12 43 -7 67 -26 33 -16 66 24 80 37 13 44 23 37 56 -21 104 100 178 187
114 41 -30 45 -30 77 -5 18 14 33 17 55 13 34 -7 48 7 48 48 0 44 23 63 81 69
54 5 54 5 60 44 13 82 93 111 151 56z m3108 5 c13 -13 26 -42 29 -62 6 -38 7
-38 60 -43 59 -6 81 -25 81 -71 0 -34 23 -53 54 -45 16 4 32 -1 49 -14 32 -25
31 -25 75 5 89 61 204 -3 188 -104 -6 -43 -1 -53 38 -66 41 -14 50 -47 24 -80
-19 -24 -20 -31 -10 -59 17 -45 15 -59 -10 -91 -20 -25 -25 -27 -72 -21 -65 7
-311 67 -441 108 -173 53 -534 194 -558 217 -5 5 11 20 35 34 24 14 64 47 89
74 25 27 52 47 59 45 7 -3 17 3 22 12 6 11 17 14 32 10 13 -3 27 -1 30 5 12
19 35 12 48 -16 11 -23 19 -27 44 -25 35 4 64 -18 64 -49 0 -10 7 -19 15 -19
10 0 15 10 15 29 0 33 -39 71 -73 71 -11 0 -30 12 -44 26 -22 23 -28 25 -80
18 l-56 -7 6 31 c7 34 47 82 69 82 9 0 21 -7 28 -15 18 -22 33 -19 68 15 41
39 88 41 122 5z m-1435 -180 c14 -13 25 -31 25 -39 0 -23 36 -39 59 -26 25 13
51 3 51 -20 0 -33 26 -44 70 -30 36 12 42 11 60 -5 12 -11 20 -31 20 -51 0
-47 25 -59 68 -32 30 19 34 19 57 4 30 -20 33 -56 5 -81 -28 -25 -25 -48 11
-74 41 -30 38 -71 -6 -83 -76 -20 -365 -38 -604 -38 -246 1 -348 6 -549 31
-88 11 -94 13 -108 41 -18 36 -12 70 18 98 19 17 20 24 11 54 -14 47 4 74 54
78 33 3 39 7 48 38 19 67 58 100 115 100 44 -1 76 -18 100 -56 17 -25 27 -29
67 -31 27 0 59 -3 73 -5 20 -2 28 4 42 34 20 43 55 57 94 39 41 -18 62 -13 79
18 32 63 97 80 140 36z m-354 -23 c-13 -24 -75 -22 -99 2 -15 15 -12 16 46 16
58 0 62 -1 53 -18z m-771 -158 c6 -14 10 -27 10 -30 0 -7 -175 -92 -306 -147
-229 -96 -623 -218 -787 -242 -44 -7 -46 -6 -62 24 -18 37 -31 30 130 66 270
61 624 183 877 304 56 27 109 50 116 50 7 1 17 -11 22 -25z m240 9 c0 -34 -19
-47 -81 -60 -35 -7 -65 -11 -67 -9 -8 8 -20 75 -14 80 3 4 41 6 84 6 68 0 78
-2 78 -17z m1572 11 c6 -5 -6 -72 -14 -80 -10 -9 -164 29 -175 44 -29 36 -17
42 85 42 54 0 101 -2 104 -6z m204 -40 c270 -126 564 -229 839 -295 94 -23
175 -43 182 -45 21 -5 -8 -64 -32 -64 -61 0 -381 87 -593 160 -216 75 -532
218 -532 241 0 16 20 49 29 49 5 0 53 -21 107 -46z m-353 -90 c6 -7 -13 -54
-22 -54 -11 0 -32 41 -26 50 7 11 38 13 48 4z m-1469 -26 c3 -13 7 -39 9 -58
3 -19 8 -45 12 -57 6 -19 2 -23 -36 -33 -41 -11 -44 -11 -59 12 -19 30 -48 59
-80 79 -14 9 -22 20 -17 25 8 9 136 53 154 54 7 0 15 -10 17 -22z m1624 -10
c28 -11 52 -23 52 -28 0 -5 -16 -18 -34 -30 -19 -11 -45 -37 -56 -56 -12 -18
-24 -34 -26 -34 -3 0 -25 5 -50 11 -50 13 -52 20 -30 93 25 83 32 85 144 44z
m-2011 -101 c-50 -66 -72 -129 -72 -214 0 -39 -3 -69 -6 -65 -12 12 -81 244
-75 250 9 8 180 80 184 77 2 -2 -12 -23 -31 -48z m209 28 c23 -14 52 -39 64
-55 l22 -30 -24 -20 c-27 -23 -29 -23 -65 -9 -15 7 -59 15 -98 18 l-70 7 58
57 c33 31 61 57 65 57 3 0 24 -11 48 -25z m1971 -32 l58 -57 -76 -7 c-41 -3
-85 -11 -96 -18 -28 -15 -34 -14 -61 9 -23 19 -23 20 -5 46 16 25 97 84 114
84 4 0 33 -26 66 -57z m249 -25 c6 -6 -63 -238 -75 -250 -3 -4 -6 26 -6 65 0
84 -22 148 -71 213 -19 24 -34 46 -34 48 0 5 177 -68 186 -76z m-1761 -69 c44
-6 215 -13 381 -16 238 -4 338 -2 480 11 98 10 187 20 197 23 16 4 18 -1 15
-33 -3 -34 -6 -39 -36 -45 -19 -4 -50 -2 -70 3 -45 12 -97 6 -148 -18 -35 -17
-67 -19 -349 -19 -277 0 -313 2 -342 18 -43 23 -110 32 -153 20 -19 -6 -51 -8
-71 -5 -32 3 -38 8 -43 34 -8 39 -1 48 32 43 15 -3 63 -10 107 -16z m-499 -10
c49 -13 48 -11 32 -55 -9 -27 -18 -34 -49 -39 -21 -4 -63 -21 -93 -40 -30 -18
-57 -30 -60 -27 -18 17 5 150 28 164 17 11 91 9 142 -3z m290 -13 c3 -14 7
-65 7 -113 l2 -88 -33 2 c-18 0 -35 3 -38 5 -10 10 -43 193 -37 199 10 9 40
16 70 18 16 1 24 -6 29 -23z m1457 5 c4 -4 -2 -51 -14 -104 -21 -92 -23 -96
-52 -103 -37 -8 -60 17 -53 56 3 14 8 58 12 99 l6 73 46 -6 c26 -3 50 -10 55
-15z m335 10 c16 -10 38 -131 29 -156 -7 -16 -9 -16 -25 -3 -26 24 -94 56
-133 63 -29 5 -38 13 -48 42 -7 19 -11 36 -9 38 19 19 162 32 186 16z m-2669
-262 l83 -222 -20 -36 c-61 -109 -58 -307 8 -496 42 -122 -4 -29 -170 345
-222 498 -244 549 -238 556 5 4 228 70 249 73 3 1 43 -99 88 -220z m3321 186
c133 -36 130 -35 130 -46 0 -5 -92 -216 -205 -470 -113 -254 -205 -465 -205
-470 0 -5 -4 -9 -9 -9 -6 0 -1 26 10 58 33 93 50 191 50 284 0 95 -12 153 -43
209 l-20 36 83 222 c65 175 86 220 98 217 9 -3 59 -17 111 -31z m-2693 -85
c10 -27 8 -33 -23 -67 -18 -20 -41 -56 -50 -80 -9 -24 -20 -43 -25 -43 -9 0
-72 76 -89 108 -10 21 -9 27 12 49 33 36 87 62 128 63 30 0 37 -4 47 -30z
m1971 11 c20 -10 48 -30 60 -44 21 -22 22 -28 12 -49 -18 -33 -80 -108 -90
-108 -5 0 -14 16 -20 35 -6 19 -28 57 -49 83 -32 41 -36 50 -27 75 8 22 16 27
43 27 19 0 50 -9 71 -19z m-1242 -7 c20 -5 20 -14 32 -502 16 -633 17 -572
-11 -572 -23 0 -177 36 -184 43 -3 4 -28 276 -39 422 -3 44 -7 90 -10 102 -3
17 3 24 30 33 50 16 113 76 143 134 38 73 44 198 14 276 -12 30 -21 58 -21 63
0 8 17 9 46 1z m444 -1 c0 -5 -9 -33 -21 -63 -30 -78 -24 -203 13 -276 31 -60
97 -122 138 -131 25 -5 30 -10 30 -36 0 -40 -40 -521 -44 -524 -7 -7 -162 -43
-185 -43 l-26 0 2 92 c2 51 8 291 14 533 7 315 14 442 22 447 16 10 57 10 57
1z m-645 -67 c42 -28 79 -86 90 -145 15 -73 5 -107 -44 -153 -35 -33 -46 -38
-88 -38 -95 0 -163 82 -171 205 -4 54 -1 65 22 92 52 61 131 78 191 39z m931
8 c56 -27 84 -68 84 -124 0 -105 -57 -197 -135 -219 -65 -18 -141 23 -169 91
-22 52 1 150 50 207 49 58 109 74 170 45z m-1375 -26 c27 -16 37 -28 33 -38
-14 -33 -24 -107 -18 -132 5 -24 2 -28 -15 -28 -26 0 -126 44 -136 60 -12 19
16 90 51 127 17 18 34 33 38 33 4 0 25 -10 47 -22z m1765 -3 c31 -31 68 -111
60 -131 -5 -14 -79 -51 -135 -69 -22 -7 -23 -5 -17 27 6 32 -3 103 -18 138 -4
10 6 22 32 37 47 28 48 28 78 -2z m241 -111 c-31 -93 -34 -97 -84 -131 -64
-42 -130 -114 -179 -194 -19 -32 -38 -59 -41 -59 -4 0 -14 7 -23 15 -16 15
-16 22 8 115 26 98 27 100 62 111 53 17 161 83 196 121 18 18 43 52 58 76 14
23 28 42 30 42 2 0 -10 -43 -27 -96z m-2268 -18 c36 -40 133 -102 189 -120
l48 -16 24 -96 c23 -95 22 -122 -7 -131 -6 -2 -25 20 -43 49 -50 81 -116 155
-179 197 -54 37 -57 42 -84 123 -34 105 -34 113 -1 63 15 -22 39 -53 53 -69z
m407 81 c5 -14 22 -172 19 -175 -2 -3 -28 -1 -57 4 l-53 9 -3 50 c-2 28 2 67
8 88 11 38 12 39 48 32 20 -4 37 -8 38 -8z m1483 -18 c14 -40 14 -136 1 -144
-5 -3 -33 -9 -61 -12 l-52 -6 7 34 c4 19 9 60 13 91 5 48 9 58 27 61 47 9 54
7 65 -24z m-2063 -231 c102 -69 218 -260 266 -438 29 -111 33 -297 6 -347 -51
-92 -133 -81 -236 32 -162 177 -261 509 -207 693 28 94 88 115 171 60z m2687
11 c77 -60 73 -290 -8 -503 -84 -222 -255 -394 -344 -345 -49 27 -66 81 -65
204 1 180 63 366 173 514 103 138 181 180 244 130z m-2039 -15 c22 -8 23 -94
1 -94 -8 0 -17 12 -21 28 -3 15 -8 33 -10 40 -4 13 3 32 11 32 2 0 10 -3 19
-6z m1290 -32 c-12 -56 -16 -62 -36 -62 -18 0 -20 4 -14 31 3 17 6 37 6 45 0
13 28 24 43 17 4 -2 4 -16 1 -31z m-1253 -198 c3 -32 5 -60 4 -62 -1 -1 -25
21 -54 49 -28 29 -49 54 -47 57 7 6 69 20 81 18 6 -2 13 -29 16 -62z m1252 55
c20 -5 37 -11 37 -12 0 -2 -25 -29 -57 -61 l-56 -59 6 54 c4 30 7 62 7 72 0
20 11 21 63 6z m-1337 -81 c50 -46 79 -94 89 -150 6 -33 3 -40 -43 -88 l-49
-52 -7 49 c-9 65 -59 165 -101 202 -19 17 -35 32 -35 35 0 9 66 46 83 46 9 0
38 -19 63 -42z m1470 21 c19 -11 34 -23 34 -25 0 -3 -16 -18 -35 -35 -42 -37
-92 -136 -101 -201 -3 -27 -10 -48 -15 -48 -5 0 -9 4 -9 9 0 5 -18 28 -41 51
-37 38 -40 45 -34 78 10 56 39 104 89 150 52 48 65 50 112 21z m-1546 -166
c16 -32 26 -71 28 -117 4 -65 3 -69 -24 -92 -16 -13 -33 -23 -39 -24 -6 0 -10
46 -10 118 0 64 -3 134 -7 156 -7 36 -6 37 11 22 9 -9 28 -37 41 -63z m1559
25 c-4 -24 -8 -91 -9 -150 0 -60 -3 -108 -6 -108 -3 0 -19 9 -35 21 -26 18
-29 26 -29 78 0 65 12 109 47 164 31 49 42 47 32 -5z m-2556 -70 c19 -8 36
-26 50 -57 17 -35 29 -47 53 -52 45 -9 54 -17 54 -49 0 -47 -42 -74 -79 -51
-8 5 -19 24 -25 43 -9 25 -17 34 -38 36 -30 4 -30 3 -33 -67 -1 -55 -38 -91
-91 -91 -50 0 -73 15 -94 64 -14 34 -25 44 -49 49 -22 5 -32 14 -37 32 -10 40
12 58 62 50 42 -6 43 -5 63 33 23 45 40 61 78 71 29 8 37 7 86 -11z m3552
-124 c26 -28 38 -34 55 -29 19 6 21 5 11 -13 -14 -27 -7 -43 32 -67 78 -49 17
-158 -64 -114 -11 5 -24 21 -29 35 -6 14 -18 24 -29 24 -22 0 -31 -11 -46 -55
-14 -41 -57 -56 -86 -29 -18 16 -20 26 -15 67 6 44 5 48 -19 57 -52 20 -39 74
16 63 26 -5 30 -2 48 40 11 24 25 47 33 50 34 14 62 5 93 -29z m-3221 -50 c9
-23 1 -28 -22 -15 -12 6 -32 11 -46 11 -14 0 -26 5 -26 10 0 6 20 10 44 10 31
0 46 -5 50 -16z m-39 -88 c12 -9 21 -31 24 -62 5 -40 10 -50 28 -52 13 -2 27
5 37 20 l16 22 0 -27 c0 -22 7 -31 33 -42 43 -18 60 -39 60 -75 0 -59 -56 -87
-118 -58 -24 11 -29 9 -63 -31 -29 -34 -45 -43 -77 -47 -76 -9 -129 43 -127
126 1 40 -3 52 -19 61 -31 16 -22 63 12 67 14 2 31 -4 39 -12 16 -20 25 -20
45 0 11 11 14 26 10 43 -4 19 1 35 15 54 24 30 56 35 85 13z m1136 -37 c16
-16 20 -28 15 -51 -11 -55 37 -79 67 -35 l16 22 0 -28 c1 -21 8 -30 28 -38 43
-16 63 -39 63 -72 0 -58 -60 -94 -111 -66 -26 14 -54 4 -67 -25 -14 -32 -76
-59 -116 -52 -18 4 -46 20 -62 37 -24 25 -29 39 -30 84 -1 44 -6 58 -24 73
-16 13 -21 24 -16 39 10 30 33 36 66 17 41 -25 60 -13 60 37 0 25 7 50 17 61
22 24 68 23 94 -3z m539 -279 c29 -31 44 -40 70 -40 60 0 90 -51 53 -92 -26
-29 -58 -22 -91 20 -26 31 -34 35 -49 26 -11 -7 -17 -21 -15 -35 10 -79 6 -99
-21 -126 -21 -21 -37 -28 -68 -28 -36 0 -46 6 -74 38 -19 22 -41 37 -54 37
-39 0 -61 18 -61 50 0 32 29 55 58 46 26 -8 39 5 51 51 16 59 59 93 118 93 41
0 50 -5 83 -40z"/>
<path d="M2908 4403 c7 -3 16 -2 19 1 4 3 -2 6 -13 5 -11 0 -14 -3 -6 -6z"/>
<path d="M3490 4406 c0 -2 14 -6 30 -8 17 -3 30 -1 30 4 0 4 -13 8 -30 8 -16
0 -30 -2 -30 -4z"/>
<path d="M1798 4393 c7 -3 16 -2 19 1 4 3 -2 6 -13 5 -11 0 -14 -3 -6 -6z"/>
<path d="M1676 4365 c-23 -21 -28 -45 -10 -45 3 0 3 4 0 9 -4 5 8 21 25 35 17
14 26 26 21 26 -5 0 -21 -11 -36 -25z"/>
<path d="M3498 4383 c6 -2 18 -2 25 0 6 3 1 5 -13 5 -14 0 -19 -2 -12 -5z"/>
<path d="M1719 4363 c-12 -16 -12 -17 1 -7 8 6 22 14 30 17 13 5 12 6 -1 6 -9
1 -23 -7 -30 -16z"/>
<path d="M3568 4373 c7 -3 16 -2 19 1 4 3 -2 6 -13 5 -11 0 -14 -3 -6 -6z"/>
<path d="M3635 4330 c3 -5 8 -10 11 -10 2 0 4 5 4 10 0 6 -5 10 -11 10 -5 0
-7 -4 -4 -10z"/>
<path d="M3268 4273 c6 -2 18 -2 25 0 6 3 1 5 -13 5 -14 0 -19 -2 -12 -5z"/>
<path d="M2025 4259 c-16 -5 -36 -7 -44 -4 -8 3 -18 0 -23 -7 -15 -24 -8 -27
27 -12 19 7 46 14 60 14 14 0 25 5 25 10 0 12 -4 12 -45 -1z"/>
<path d="M3229 4260 c10 -6 8 -10 -10 -16 -13 -4 -30 -8 -38 -8 -8 -1 -15 -9
-17 -19 -1 -9 2 -15 7 -11 5 3 6 10 3 16 -5 7 -2 9 7 6 8 -3 26 0 40 8 13 7
39 13 58 14 45 0 37 6 -18 13 -25 3 -39 2 -32 -3z"/>
<path d="M3334 4261 c4 -5 0 -12 -6 -15 -7 -3 -2 -3 11 0 14 4 21 2 18 -3 -6
-10 40 -38 56 -35 4 1 7 -7 7 -19 0 -11 5 -17 10 -14 17 10 -7 42 -36 49 -14
4 -24 10 -20 13 3 3 -2 12 -12 19 -20 15 -36 18 -28 5z"/>
<path d="M2100 4249 c-24 -7 -24 -7 -2 -8 12 -1 42 -21 67 -46 49 -48 62 -49
18 0 -16 16 -27 33 -26 37 2 4 -5 4 -14 1 -10 -4 -14 -2 -9 5 9 15 -5 20 -34
11z"/>
<path d="M1900 4195 c-7 -9 -8 -15 -2 -15 5 0 12 7 16 15 3 8 4 15 2 15 -2 0
-9 -7 -16 -15z"/>
<path d="M1880 4155 c-6 -8 -10 -19 -8 -24 1 -6 8 1 15 14 13 28 11 31 -7 10z"/>
<path d="M3116 4145 c-9 -26 -7 -32 5 -12 6 10 9 21 6 23 -2 3 -7 -2 -11 -11z"/>
<path d="M2211 4124 c0 -11 3 -14 6 -6 3 7 2 16 -1 19 -3 4 -6 -2 -5 -13z"/>
<path d="M2203 3573 c-27 -5 -28 -21 -7 -94 70 -237 321 -386 564 -335 180 38
312 155 369 324 12 34 21 73 21 86 l0 25 -462 -1 c-255 0 -473 -3 -485 -5z
m575 -239 c45 -22 112 -85 112 -105 0 -4 -24 -17 -52 -29 -64 -28 -203 -38
-275 -21 -55 13 -123 41 -123 50 0 4 13 23 30 43 44 54 120 88 195 88 46 0 74
-7 113 -26z"/>
<path d="M870 2798 c-25 -5 -73 -9 -106 -8 -51 1 -66 -3 -88 -22 -29 -25 -48
-78 -36 -98 11 -18 30 -3 30 24 0 52 79 85 127 51 18 -13 22 -12 39 6 13 14
25 18 42 14 13 -3 30 -1 38 6 17 14 44 5 44 -16 0 -10 10 -15 33 -15 18 0 38
-5 44 -11 8 -8 13 -8 18 1 10 16 -14 40 -39 40 -12 0 -27 9 -34 20 -13 22 -38
24 -112 8z"/>
<path d="M4348 2791 c-7 -12 -22 -21 -34 -21 -11 0 -29 -8 -38 -19 -15 -16
-15 -19 -2 -24 9 -4 18 -2 21 3 4 6 21 10 39 10 25 0 35 5 39 20 5 21 31 27
42 10 3 -6 17 -7 31 -4 17 4 31 1 44 -11 17 -15 24 -16 46 -7 58 27 124 -3
124 -56 0 -25 19 -40 30 -22 12 20 -7 73 -37 99 -24 21 -34 23 -87 18 -33 -3
-67 -2 -76 3 -8 4 -41 11 -72 15 -51 6 -58 5 -70 -14z"/>
<path d="M2861 2816 c-15 -8 -40 -12 -62 -9 -31 5 -42 1 -63 -20 -26 -26 -35
-57 -16 -57 6 0 22 12 34 27 23 27 26 27 61 14 34 -12 38 -11 51 8 19 26 28
26 53 0 11 -12 24 -18 30 -14 6 3 15 -5 21 -20 5 -14 16 -25 22 -24 29 3 38
-2 38 -24 0 -17 8 -25 32 -32 22 -7 34 -18 38 -34 8 -35 30 -39 30 -5 0 25
-35 65 -130 147 -17 16 -97 57 -108 57 -4 -1 -18 -7 -31 -14z"/>
<path d="M2242 2725 c-37 -31 -48 -65 -21 -65 10 0 19 6 19 14 0 22 40 46 74
46 19 0 40 -10 57 -26 23 -22 30 -24 48 -15 16 9 27 9 44 0 12 -7 33 -13 47
-13 18 -1 26 -7 28 -23 2 -13 9 -23 16 -23 7 0 25 -9 39 -20 40 -32 48 -3 9
30 -18 15 -32 31 -32 37 0 26 -41 40 -136 46 -17 1 -42 10 -57 20 -39 25 -99
22 -135 -8z"/>
</g>
</svg>
